<mxfile host="Electron" agent="Mozilla/5.0 (X11; Linux x86_64) AppleWebKit/537.36 (KHTML, like Gecko) draw.io/26.0.9 Chrome/128.0.6613.186 Electron/32.3.1 Safari/537.36" version="26.0.9">
  <diagram name="Page-1" id="dKeURpFCAH5lBt_OtzPY">
    <mxGraphModel dx="1634" dy="1198" grid="1" gridSize="10" guides="1" tooltips="1" connect="1" arrows="1" fold="1" page="0" pageScale="1" pageWidth="827" pageHeight="1169" math="0" shadow="0">
      <root>
        <mxCell id="0" />
        <mxCell id="1" parent="0" />
        <mxCell id="Hr6x0CXhVlbPkCjzwK7y-6" value="SYS" style="shape=umlFrame;whiteSpace=wrap;html=1;pointerEvents=0;" vertex="1" parent="1">
          <mxGeometry x="30" y="260" width="620" height="720" as="geometry" />
        </mxCell>
        <mxCell id="Hr6x0CXhVlbPkCjzwK7y-45" style="edgeStyle=orthogonalEdgeStyle;rounded=0;orthogonalLoop=1;jettySize=auto;html=1;entryX=0;entryY=0.5;entryDx=0;entryDy=0;endArrow=none;startFill=0;" edge="1" parent="1" source="Hr6x0CXhVlbPkCjzwK7y-7" target="Hr6x0CXhVlbPkCjzwK7y-18">
          <mxGeometry relative="1" as="geometry" />
        </mxCell>
        <mxCell id="Hr6x0CXhVlbPkCjzwK7y-46" style="edgeStyle=orthogonalEdgeStyle;rounded=0;orthogonalLoop=1;jettySize=auto;html=1;entryX=0;entryY=0.5;entryDx=0;entryDy=0;endArrow=none;startFill=0;" edge="1" parent="1" source="Hr6x0CXhVlbPkCjzwK7y-7" target="Hr6x0CXhVlbPkCjzwK7y-13">
          <mxGeometry relative="1" as="geometry" />
        </mxCell>
        <mxCell id="Hr6x0CXhVlbPkCjzwK7y-7" value="Recruteur" style="shape=umlActor;verticalLabelPosition=bottom;verticalAlign=top;html=1;outlineConnect=0;" vertex="1" parent="1">
          <mxGeometry x="-70" y="670" width="30" height="60" as="geometry" />
        </mxCell>
        <mxCell id="Hr6x0CXhVlbPkCjzwK7y-38" style="edgeStyle=orthogonalEdgeStyle;rounded=0;orthogonalLoop=1;jettySize=auto;html=1;entryX=0;entryY=0.5;entryDx=0;entryDy=0;endArrow=none;startFill=0;" edge="1" parent="1" source="Hr6x0CXhVlbPkCjzwK7y-10" target="Hr6x0CXhVlbPkCjzwK7y-15">
          <mxGeometry relative="1" as="geometry" />
        </mxCell>
        <mxCell id="Hr6x0CXhVlbPkCjzwK7y-39" style="edgeStyle=orthogonalEdgeStyle;rounded=0;orthogonalLoop=1;jettySize=auto;html=1;entryX=0;entryY=0.5;entryDx=0;entryDy=0;endArrow=none;startFill=0;" edge="1" parent="1" source="Hr6x0CXhVlbPkCjzwK7y-10" target="Hr6x0CXhVlbPkCjzwK7y-16">
          <mxGeometry relative="1" as="geometry" />
        </mxCell>
        <mxCell id="Hr6x0CXhVlbPkCjzwK7y-10" value="candidat" style="shape=umlActor;verticalLabelPosition=bottom;verticalAlign=top;html=1;outlineConnect=0;" vertex="1" parent="1">
          <mxGeometry x="-70" y="360" width="30" height="60" as="geometry" />
        </mxCell>
        <mxCell id="Hr6x0CXhVlbPkCjzwK7y-12" value="Creer entreprise" style="ellipse;whiteSpace=wrap;html=1;" vertex="1" parent="1">
          <mxGeometry x="350" y="670" width="140" height="70" as="geometry" />
        </mxCell>
        <mxCell id="Hr6x0CXhVlbPkCjzwK7y-24" style="edgeStyle=orthogonalEdgeStyle;rounded=0;orthogonalLoop=1;jettySize=auto;html=1;dashed=1;endArrow=open;endFill=0;" edge="1" parent="1" source="Hr6x0CXhVlbPkCjzwK7y-13" target="Hr6x0CXhVlbPkCjzwK7y-14">
          <mxGeometry relative="1" as="geometry" />
        </mxCell>
        <mxCell id="Hr6x0CXhVlbPkCjzwK7y-26" style="edgeStyle=orthogonalEdgeStyle;rounded=0;orthogonalLoop=1;jettySize=auto;html=1;entryX=0.5;entryY=1;entryDx=0;entryDy=0;dashed=1;endArrow=open;endFill=0;" edge="1" parent="1" source="Hr6x0CXhVlbPkCjzwK7y-13" target="Hr6x0CXhVlbPkCjzwK7y-12">
          <mxGeometry relative="1" as="geometry" />
        </mxCell>
        <mxCell id="Hr6x0CXhVlbPkCjzwK7y-28" value="Include" style="edgeLabel;html=1;align=center;verticalAlign=middle;resizable=0;points=[];" vertex="1" connectable="0" parent="Hr6x0CXhVlbPkCjzwK7y-26">
          <mxGeometry x="0.5273" y="-1" relative="1" as="geometry">
            <mxPoint as="offset" />
          </mxGeometry>
        </mxCell>
        <mxCell id="Hr6x0CXhVlbPkCjzwK7y-13" value="publier offre" style="ellipse;whiteSpace=wrap;html=1;" vertex="1" parent="1">
          <mxGeometry x="160" y="760" width="140" height="70" as="geometry" />
        </mxCell>
        <mxCell id="Hr6x0CXhVlbPkCjzwK7y-14" value="enregistrer site" style="ellipse;whiteSpace=wrap;html=1;" vertex="1" parent="1">
          <mxGeometry x="490" y="540" width="140" height="70" as="geometry" />
        </mxCell>
        <mxCell id="Hr6x0CXhVlbPkCjzwK7y-31" style="edgeStyle=orthogonalEdgeStyle;rounded=0;orthogonalLoop=1;jettySize=auto;html=1;dashed=1;endArrow=open;endFill=0;entryX=0;entryY=0.5;entryDx=0;entryDy=0;" edge="1" parent="1" source="Hr6x0CXhVlbPkCjzwK7y-15" target="Hr6x0CXhVlbPkCjzwK7y-14">
          <mxGeometry relative="1" as="geometry">
            <mxPoint x="560" y="540" as="targetPoint" />
          </mxGeometry>
        </mxCell>
        <mxCell id="Hr6x0CXhVlbPkCjzwK7y-55" value="Include" style="edgeLabel;html=1;align=center;verticalAlign=middle;resizable=0;points=[];" vertex="1" connectable="0" parent="Hr6x0CXhVlbPkCjzwK7y-31">
          <mxGeometry x="-0.2" y="4" relative="1" as="geometry">
            <mxPoint as="offset" />
          </mxGeometry>
        </mxCell>
        <mxCell id="Hr6x0CXhVlbPkCjzwK7y-51" style="edgeStyle=orthogonalEdgeStyle;rounded=0;orthogonalLoop=1;jettySize=auto;html=1;entryX=0.5;entryY=0;entryDx=0;entryDy=0;dashed=1;endArrow=open;endFill=0;" edge="1" parent="1" source="Hr6x0CXhVlbPkCjzwK7y-15" target="Hr6x0CXhVlbPkCjzwK7y-13">
          <mxGeometry relative="1" as="geometry" />
        </mxCell>
        <mxCell id="Hr6x0CXhVlbPkCjzwK7y-52" value="Include" style="edgeLabel;html=1;align=center;verticalAlign=middle;resizable=0;points=[];" vertex="1" connectable="0" parent="Hr6x0CXhVlbPkCjzwK7y-51">
          <mxGeometry x="-0.025" y="-3" relative="1" as="geometry">
            <mxPoint as="offset" />
          </mxGeometry>
        </mxCell>
        <mxCell id="Hr6x0CXhVlbPkCjzwK7y-15" value="Consulter offre" style="ellipse;whiteSpace=wrap;html=1;" vertex="1" parent="1">
          <mxGeometry x="160" y="540" width="140" height="70" as="geometry" />
        </mxCell>
        <mxCell id="Hr6x0CXhVlbPkCjzwK7y-29" style="edgeStyle=orthogonalEdgeStyle;rounded=0;orthogonalLoop=1;jettySize=auto;html=1;endArrow=open;endFill=0;dashed=1;strokeColor=default;" edge="1" parent="1" source="Hr6x0CXhVlbPkCjzwK7y-16" target="Hr6x0CXhVlbPkCjzwK7y-14">
          <mxGeometry relative="1" as="geometry" />
        </mxCell>
        <mxCell id="Hr6x0CXhVlbPkCjzwK7y-56" value="include" style="edgeLabel;html=1;align=center;verticalAlign=middle;resizable=0;points=[];" vertex="1" connectable="0" parent="Hr6x0CXhVlbPkCjzwK7y-29">
          <mxGeometry x="-0.6107" y="3" relative="1" as="geometry">
            <mxPoint as="offset" />
          </mxGeometry>
        </mxCell>
        <mxCell id="Hr6x0CXhVlbPkCjzwK7y-36" style="edgeStyle=orthogonalEdgeStyle;rounded=0;orthogonalLoop=1;jettySize=auto;html=1;entryX=0.5;entryY=0;entryDx=0;entryDy=0;endArrow=open;endFill=0;dashed=1;" edge="1" parent="1" source="Hr6x0CXhVlbPkCjzwK7y-16" target="Hr6x0CXhVlbPkCjzwK7y-15">
          <mxGeometry relative="1" as="geometry" />
        </mxCell>
        <mxCell id="Hr6x0CXhVlbPkCjzwK7y-37" value="Include" style="edgeLabel;html=1;align=center;verticalAlign=middle;resizable=0;points=[];" vertex="1" connectable="0" parent="Hr6x0CXhVlbPkCjzwK7y-36">
          <mxGeometry y="-2" relative="1" as="geometry">
            <mxPoint as="offset" />
          </mxGeometry>
        </mxCell>
        <mxCell id="Hr6x0CXhVlbPkCjzwK7y-16" value="candidater offre" style="ellipse;whiteSpace=wrap;html=1;" vertex="1" parent="1">
          <mxGeometry x="160" y="390" width="140" height="70" as="geometry" />
        </mxCell>
        <mxCell id="Hr6x0CXhVlbPkCjzwK7y-49" style="edgeStyle=orthogonalEdgeStyle;rounded=0;orthogonalLoop=1;jettySize=auto;html=1;dashed=1;endArrow=open;endFill=0;" edge="1" parent="1" source="Hr6x0CXhVlbPkCjzwK7y-17" target="Hr6x0CXhVlbPkCjzwK7y-16">
          <mxGeometry relative="1" as="geometry" />
        </mxCell>
        <mxCell id="Hr6x0CXhVlbPkCjzwK7y-50" value="Extend" style="edgeLabel;html=1;align=center;verticalAlign=middle;resizable=0;points=[];" vertex="1" connectable="0" parent="Hr6x0CXhVlbPkCjzwK7y-49">
          <mxGeometry x="-0.2333" y="-2" relative="1" as="geometry">
            <mxPoint as="offset" />
          </mxGeometry>
        </mxCell>
        <mxCell id="Hr6x0CXhVlbPkCjzwK7y-17" value="Consulter entreprise candidate&amp;nbsp;" style="ellipse;whiteSpace=wrap;html=1;" vertex="1" parent="1">
          <mxGeometry x="160" y="270" width="140" height="70" as="geometry" />
        </mxCell>
        <mxCell id="Hr6x0CXhVlbPkCjzwK7y-25" style="edgeStyle=orthogonalEdgeStyle;rounded=0;orthogonalLoop=1;jettySize=auto;html=1;dashed=1;endArrow=open;endFill=0;" edge="1" parent="1" source="Hr6x0CXhVlbPkCjzwK7y-18" target="Hr6x0CXhVlbPkCjzwK7y-14">
          <mxGeometry relative="1" as="geometry" />
        </mxCell>
        <mxCell id="Hr6x0CXhVlbPkCjzwK7y-27" value="Include" style="edgeLabel;html=1;align=center;verticalAlign=middle;resizable=0;points=[];" vertex="1" connectable="0" parent="Hr6x0CXhVlbPkCjzwK7y-25">
          <mxGeometry x="0.8161" y="-1" relative="1" as="geometry">
            <mxPoint as="offset" />
          </mxGeometry>
        </mxCell>
        <mxCell id="Hr6x0CXhVlbPkCjzwK7y-18" value="Consulter offre candidat" style="ellipse;whiteSpace=wrap;html=1;" vertex="1" parent="1">
          <mxGeometry x="160" y="880" width="140" height="70" as="geometry" />
        </mxCell>
      </root>
    </mxGraphModel>
  </diagram>
</mxfile>
